<?xml version="1.0" encoding="UTF-8" standalone="no"?>
<!-- Generator: Adobe Illustrator 16.0.4, SVG Export Plug-In . SVG Version: 6.00 Build 0)  -->

<svg
   xmlns:dc="http://purl.org/dc/elements/1.1/"
   xmlns:cc="http://creativecommons.org/ns#"
   xmlns:rdf="http://www.w3.org/1999/02/22-rdf-syntax-ns#"
   xmlns:svg="http://www.w3.org/2000/svg"
   xmlns="http://www.w3.org/2000/svg"
   xmlns:sodipodi="http://sodipodi.sourceforge.net/DTD/sodipodi-0.dtd"
   xmlns:inkscape="http://www.inkscape.org/namespaces/inkscape"
   version="1.1"
   id="Layer_1"
   x="0px"
   y="0px"
   width="320.00101"
   height="38.530769"
   viewBox="0 0 320.00101 38.530769"
   enable-background="new 0 0 320 130"
   xml:space="preserve"
   inkscape:version="0.91+devel+osxmenu r12922"
   sodipodi:docname="dna.svg"
   inkscape:export-filename="/Users/kai/Documents/wanglab/static/img/dna.png"
   inkscape:export-xdpi="24.915154"
   inkscape:export-ydpi="24.915154"><metadata
     id="metadata3486"><rdf:RDF><cc:Work
         rdf:about=""><dc:format>image/svg+xml</dc:format><dc:type
           rdf:resource="http://purl.org/dc/dcmitype/StillImage" /><dc:title></dc:title></cc:Work></rdf:RDF></metadata><defs
     id="defs3484" /><sodipodi:namedview
     pagecolor="#ffffff"
     bordercolor="#666666"
     borderopacity="1"
     objecttolerance="10"
     gridtolerance="10"
     guidetolerance="10"
     inkscape:pageopacity="0"
     inkscape:pageshadow="2"
     inkscape:window-width="1276"
     inkscape:window-height="755"
     id="namedview3482"
     showgrid="false"
     inkscape:zoom="1.736831"
     inkscape:cx="112.8291"
     inkscape:cy="-38.09036"
     inkscape:window-x="4"
     inkscape:window-y="23"
     inkscape:window-maximized="0"
     inkscape:current-layer="Layer_1"
     fit-margin-top="0"
     fit-margin-left="0"
     fit-margin-right="0"
     fit-margin-bottom="0" /><g
     id="g3436"
     style="fill:#5555ff"
     inkscape:export-xdpi="14.999953"
     inkscape:export-ydpi="14.999953"
     transform="scale(1,0.30291961)"><path
       d="m 160,105.115 c -30.24,0 -47.37,-15.793 -62.296,-35.586 -1.886,2.677 -3.771,5.412 -5.687,8.192 -2.447,3.555 -4.943,7.172 -7.525,10.773 16.878,20.891 38.711,38.704 75.508,38.704 34.532,0 55.986,-18.287 73.14,-39.306 -2.922,-3.872 -5.709,-7.724 -8.388,-11.434 -1.724,-2.387 -3.424,-4.744 -5.119,-7.054 -15.286,19.763 -32.09,35.711 -59.633,35.711 z"
       id="path3438"
       inkscape:connector-curvature="0"
       style="fill:#5555ff" /><path
       d="M 62.344,57.282 C 66.511,51.233 70.918,44.841 75.753,38.545 60.352,17.817 42.164,0 11.042,0 4.944,0 0,4.943 0,11.042 c 0,6.099 4.944,11.042 11.042,11.042 22.764,0 35.395,13.265 51.146,35.424 0.053,-0.076 0.103,-0.149 0.156,-0.226 z"
       id="path3440"
       inkscape:connector-curvature="0"
       style="fill:#5555ff" /><path
       d="m 241.989,39.224 c 4.249,5.443 8.208,10.923 11.976,16.143 0.565,0.783 1.126,1.56 1.685,2.331 14.881,-19.963 29.513,-35.614 53.309,-35.614 6.099,0 11.042,-4.943 11.042,-11.042 C 320.001,4.943 315.057,0 308.958,0 277.801,0 258.114,18.623 241.989,39.224 Z"
       id="path3442"
       inkscape:connector-curvature="0"
       style="fill:#5555ff" /></g><path
     style="fill:#ff7f2a;stroke-width:0.5503813"
     inkscape:connector-curvature="0"
     id="path3446"
     d="m 320,35.18593 c 0,1.847204 -4.943,3.344839 -11.042,3.344839 -38.968,0 -59.997,-8.822534 -78.552,-16.606962 C 211.732,14.0897 194.094,6.6893737 160,6.6893737 c -38.131,0 -55.42,7.6044943 -73.726,15.6554913 C 68.181,30.30226 49.471,38.530769 11.042,38.530769 4.944,38.530769 0,37.033134 0,35.18593 c 0,-1.846901 4.944,-3.344838 11.042,-3.344838 25.53,0 38.31,-5.050882 57.044,-13.290901 C 87.856,9.8551866 110.265,0 160,0 c 45.386,0 68.19,9.56711 88.311,18.007965 17.693,7.423045 32.974,13.83343 60.647,13.83343 6.099,0 11.042,1.497634 11.042,3.344535 z"
     inkscape:export-xdpi="7.5472884"
     inkscape:export-ydpi="7.5472884" /></svg>